<svg width="32" height="32" viewBox="0 0 32 32" fill="none" xmlns="http://www.w3.org/2000/svg">
<path d="M10 20C9.76605 20.0047 9.53786 19.9272 9.35514 19.7811C9.17242 19.6349 9.04675 19.4293 9 19.2L6.66 7.41C6.52371 6.73054 6.15639 6.11921 5.62045 5.67989C5.08451 5.24056 4.413 5.00033 3.72 5H2C1.73478 5 1.48043 4.89464 1.29289 4.70711C1.10536 4.51957 1 4.26522 1 4C1 3.73478 1.10536 3.48043 1.29289 3.29289C1.48043 3.10536 1.73478 3 2 3H3.72C4.87265 2.99976 5.98999 3.39778 6.8829 4.12669C7.77582 4.8556 8.38947 5.87064 8.62 7L11 18.8C11.0291 18.9315 11.0312 19.0676 11.0064 19.1999C10.9816 19.3323 10.9303 19.4583 10.8556 19.5704C10.7809 19.6825 10.6843 19.7783 10.5716 19.8521C10.459 19.9259 10.3326 19.9762 10.2 20H10Z" fill="white"/>
<path d="M10.9998 27H9.13975C8.07915 26.9934 7.06151 26.5801 6.29677 25.8451C5.53203 25.1102 5.07851 24.1098 5.02977 23.0503C4.98103 21.9908 5.34078 20.953 6.03481 20.151C6.72885 19.349 7.70423 18.8439 8.75975 18.74L27.1698 17.07L28.7798 9H7.99975C7.73454 9 7.48018 8.89464 7.29265 8.70711C7.10511 8.51957 6.99975 8.26522 6.99975 8C6.99975 7.73478 7.10511 7.48043 7.29265 7.29289C7.48018 7.10536 7.73454 7 7.99975 7H29.9998C30.1475 7.00098 30.2931 7.03466 30.4263 7.09864C30.5594 7.16261 30.6767 7.25529 30.7698 7.37C30.8675 7.48247 30.9389 7.61537 30.9787 7.75897C31.0185 7.90257 31.0257 8.05326 30.9998 8.2L28.9998 18.2C28.9575 18.4115 28.848 18.6037 28.6876 18.7478C28.5272 18.892 28.3245 18.9805 28.1098 19L8.93975 20.74C8.66004 20.7531 8.38565 20.8212 8.13225 20.9404C7.87885 21.0596 7.65141 21.2275 7.4629 21.4346C7.08221 21.8528 6.88323 22.4051 6.90975 22.97C6.93627 23.5349 7.18612 24.0661 7.60433 24.4468C8.02253 24.8275 8.57484 25.0265 9.13975 25H10.9998C11.265 25 11.5193 25.1054 11.7069 25.2929C11.8944 25.4804 11.9998 25.7348 11.9998 26C11.9998 26.2652 11.8944 26.5196 11.7069 26.7071C11.5193 26.8946 11.265 27 10.9998 27ZM25.9998 30C25.2086 30 24.4353 29.7654 23.7775 29.3259C23.1197 28.8864 22.607 28.2616 22.3042 27.5307C22.0015 26.7998 21.9223 25.9956 22.0766 25.2196C22.231 24.4437 22.6119 23.731 23.1713 23.1716C23.7307 22.6122 24.4435 22.2312 25.2194 22.0769C25.9953 21.9225 26.7996 22.0017 27.5305 22.3045C28.2614 22.6072 28.8861 23.1199 29.3256 23.7777C29.7652 24.4355 29.9998 25.2089 29.9998 26C29.9998 27.0609 29.5783 28.0783 28.8282 28.8284C28.078 29.5786 27.0606 30 25.9998 30ZM25.9998 24C25.6042 24 25.2175 24.1173 24.8886 24.3371C24.5597 24.5568 24.3034 24.8692 24.152 25.2346C24.0006 25.6001 23.961 26.0022 24.0382 26.3902C24.1154 26.7781 24.3058 27.1345 24.5855 27.4142C24.8652 27.6939 25.2216 27.8844 25.6096 27.9616C25.9975 28.0387 26.3997 27.9991 26.7651 27.8478C27.1306 27.6964 27.4429 27.44 27.6627 27.1111C27.8825 26.7822 27.9998 26.3956 27.9998 26C27.9998 25.4696 27.789 24.9609 27.414 24.5858C27.0389 24.2107 26.5302 24 25.9998 24Z" fill="white"/>
<path d="M14 30C13.2089 30 12.4355 29.7654 11.7777 29.3259C11.1199 28.8864 10.6072 28.2616 10.3045 27.5307C10.0017 26.7998 9.92252 25.9956 10.0769 25.2196C10.2312 24.4437 10.6122 23.731 11.1716 23.1716C11.731 22.6122 12.4437 22.2312 13.2196 22.0769C13.9956 21.9225 14.7998 22.0017 15.5307 22.3045C16.2616 22.6072 16.8864 23.1199 17.3259 23.7777C17.7654 24.4355 18 25.2089 18 26C18 27.0609 17.5786 28.0783 16.8284 28.8284C16.0783 29.5786 15.0609 30 14 30ZM14 24C13.6044 24 13.2178 24.1173 12.8889 24.3371C12.56 24.5568 12.3036 24.8692 12.1522 25.2346C12.0009 25.6001 11.9613 26.0022 12.0384 26.3902C12.1156 26.7781 12.3061 27.1345 12.5858 27.4142C12.8655 27.6939 13.2219 27.8844 13.6098 27.9616C13.9978 28.0387 14.3999 27.9991 14.7654 27.8478C15.1308 27.6964 15.4432 27.44 15.6629 27.1111C15.8827 26.7822 16 26.3956 16 26C16 25.4696 15.7893 24.9609 15.4142 24.5858C15.0391 24.2107 14.5304 24 14 24Z" fill="white"/>
<path d="M23 27H17C16.7348 27 16.4804 26.8946 16.2929 26.7071C16.1054 26.5196 16 26.2652 16 26C16 25.7348 16.1054 25.4804 16.2929 25.2929C16.4804 25.1054 16.7348 25 17 25H23C23.2652 25 23.5196 25.1054 23.7071 25.2929C23.8946 25.4804 24 25.7348 24 26C24 26.2652 23.8946 26.5196 23.7071 26.7071C23.5196 26.8946 23.2652 27 23 27Z" fill="white"/>
</svg>
