<svg width="1000" height="900" viewBox="0 0 1000 900" fill="none" xmlns="http://www.w3.org/2000/svg">
<path d="M257.895 884.741C236.715 880.161 -17.7455 838.891 0.984543 534.551C19.7145 230.211 43.2245 138.681 142.155 105.201C241.085 71.7213 481.565 -86.7287 670.275 63.9313C858.985 214.591 1062.61 349.711 981.805 590.271C900.995 830.831 887.765 911.071 676.935 898.791C466.115 886.521 358.605 906.531 257.895 884.741Z" fill="white"/>
<path d="M671.124 769.684C698.254 779.454 631.194 792.714 621.784 793.674C520.174 803.964 410.224 799.174 309.554 786.064C305.424 785.524 301.154 784.924 297.744 783.254C272.854 771.074 352.794 762.804 360.224 762.174C387.814 759.804 415.843 758.254 443.673 757.994C483.103 757.624 637.484 757.574 671.124 769.684Z" fill="#57C06D" fill-opacity="0.31"/>
<path d="M541.344 314.813C541.354 280.063 542.824 244.563 537.054 210.143C532.894 185.303 523.304 159.473 499.974 146.783C487.394 139.943 472.984 137.493 458.804 137.203C444.154 136.903 429.114 138.483 415.514 144.243C391.834 154.263 379.774 176.463 374.544 200.603C366.464 237.873 369.304 277.333 369.324 315.183C369.324 317.693 374.214 316.963 374.214 314.803C374.204 282.073 372.644 248.923 376.734 216.363C379.724 192.533 386.664 166.373 407.824 152.293C419.424 144.573 433.494 141.653 447.214 140.893C461.964 140.083 477.374 141.263 491.104 147.083C514.794 157.123 525.914 180.443 530.904 204.373C538.444 240.523 536.464 278.483 536.454 315.183C536.454 317.693 541.344 316.963 541.344 314.813Z" fill="#57C06D"/>
<path d="M296.074 661.014V264.844H341.244V308.084L324.654 687.394L316.604 668.314L296.074 661.014Z" fill="#BAE5C3"/>
<path d="M304.074 642.764V283.894C304.074 273.374 312.604 264.854 323.114 264.854H341.244V306.964L325.594 676.404L320.974 657.814L311.394 653.784C306.954 651.914 304.074 647.574 304.074 642.764Z" fill="#E3F6E7"/>
<path d="M298.484 660.362C298.484 647.262 298.484 634.162 298.484 621.062C298.484 589.592 298.484 558.112 298.484 526.642C298.484 488.372 298.484 450.112 298.484 411.842C298.484 378.902 298.484 345.952 298.484 313.012C298.484 302.142 298.484 291.282 298.484 280.412C298.484 277.022 298.484 273.632 298.484 270.242C298.484 268.722 298.944 266.362 298.484 264.892C298.424 264.702 298.484 264.402 298.484 264.192C297.154 264.712 295.814 265.232 294.484 265.752C302.174 265.752 309.874 265.752 317.564 265.752C322.694 265.752 327.824 265.752 332.964 265.752C334.604 265.752 336.294 265.872 337.924 265.752C338.244 265.732 338.894 265.632 339.204 265.752C340.194 266.142 338.664 264.872 338.824 265.602C339.414 268.262 338.824 271.702 338.824 274.402C338.824 279.792 338.824 285.182 338.824 290.572C338.824 296.642 338.964 302.732 338.824 308.792C338.374 328.392 337.104 348.012 336.254 367.602C334.434 409.192 332.614 450.782 330.794 492.382C328.934 534.892 327.074 577.412 325.214 619.922C324.554 634.942 323.904 649.962 323.244 664.982C323.034 669.812 322.824 674.632 322.614 679.462C322.514 681.792 321.884 684.732 322.284 687.032C322.334 687.332 322.254 687.712 322.244 688.022C323.854 687.592 325.464 687.162 327.074 686.732C325.674 683.402 324.264 680.072 322.864 676.742C321.854 674.352 320.834 669.292 318.894 667.502C316.914 665.672 311.604 664.912 309.094 664.022C305.514 662.752 301.934 661.482 298.364 660.212C297.054 659.742 293.564 661.722 293.794 661.802C297.064 662.962 300.324 664.122 303.594 665.282C305.924 666.112 308.254 666.932 310.574 667.762C311.514 668.102 313.514 668.382 314.264 669.072C315.904 670.562 317.234 676.182 318.214 678.482C319.554 681.662 320.894 684.842 322.234 688.022C322.634 688.972 327.024 687.742 327.064 686.732C327.734 671.382 328.404 656.032 329.074 640.692C330.634 605.062 332.194 569.432 333.744 533.802C335.504 493.512 337.264 453.222 339.034 412.932C340.314 383.602 341.604 354.272 342.884 324.942C343.684 306.742 343.654 288.632 343.654 270.402C343.654 268.332 343.654 266.262 343.654 264.192C343.654 263.932 342.894 263.922 342.824 263.922C327.764 263.922 312.714 263.922 297.654 263.922C296.874 263.922 293.654 264.342 293.654 265.482C293.654 278.582 293.654 291.682 293.654 304.782C293.654 336.252 293.654 367.732 293.654 399.202C293.654 437.472 293.654 475.732 293.654 514.002C293.654 546.942 293.654 579.892 293.654 612.832C293.654 623.702 293.654 634.562 293.654 645.432C293.654 648.822 293.654 652.212 293.654 655.602C293.654 656.962 293.114 659.682 293.654 660.952C293.724 661.122 293.654 661.462 293.654 661.652C293.654 662.262 298.484 661.632 298.484 660.362Z" fill="#57C06D"/>
<path d="M460.754 769.853C460.754 742.653 460.754 715.443 460.754 688.243C460.754 685.593 455.844 686.203 455.844 688.543C455.844 715.743 455.844 742.953 455.844 770.153C455.844 772.803 460.754 772.193 460.754 769.853Z" fill="#57C06D"/>
<path d="M526.394 766.493C526.394 740.793 526.394 715.103 526.394 689.403C526.394 686.863 521.504 687.573 521.504 689.763C521.504 715.463 521.504 741.153 521.504 766.853C521.504 769.393 526.394 768.683 526.394 766.493Z" fill="#57C06D"/>
<path d="M324.654 308.082C454.924 336.542 666.254 314.122 657.604 308.082V687.402C657.604 687.402 547.004 704.012 324.654 687.402V308.082Z" fill="#BAE5C3"/>
<path d="M351.224 310.194C536.544 331.544 657.604 308.104 657.604 308.104V665.654C657.604 672.664 652.224 678.504 645.234 679.064C605.304 682.254 475.704 690.994 360.094 680.704C345.314 679.374 334.004 666.943 334.004 652.103V325.514C334.004 316.284 342.054 309.134 351.224 310.194Z" fill="white"/>
<path d="M323.134 309.234C381.984 317.834 441.854 319.774 501.264 319.604C547.004 319.474 593.224 318.624 638.714 313.454C644.154 312.834 649.743 312.284 655.053 310.894C655.843 310.684 662.083 308.873 659.863 307.183C658.823 306.393 655.194 307.143 655.194 308.713C655.194 321.273 655.194 333.834 655.194 346.384C655.194 376.544 655.194 406.714 655.194 436.874C655.194 473.384 655.194 509.884 655.194 546.394C655.194 577.974 655.194 609.564 655.194 641.144C655.194 651.574 655.194 661.993 655.194 672.423C655.194 675.703 655.194 678.984 655.194 682.264C655.194 683.564 654.684 686.124 655.194 687.344C655.264 687.514 655.194 687.834 655.194 688.024C656.124 687.434 657.063 686.843 657.993 686.243C627.614 690.793 596.443 691.794 565.803 692.754C527.353 693.944 488.854 693.784 450.404 692.704C424.954 691.994 399.514 690.874 374.094 689.394C360.094 688.584 346.114 687.664 332.124 686.644C331.134 686.574 327.344 686.924 327.074 686.434C326.934 686.174 327.144 685.634 327.074 685.344C326.214 681.824 327.074 677.004 327.074 673.404C327.074 665.904 327.074 658.413 327.074 650.913C327.074 628.173 327.074 605.444 327.074 582.704C327.074 525.914 327.074 469.114 327.074 412.324C327.074 389.594 327.074 366.864 327.074 344.144C327.074 332.564 327.904 320.624 327.074 309.064C327.034 308.514 327.074 307.954 327.074 307.404C327.074 306.244 322.244 307.044 322.244 308.694C322.244 321.254 322.244 333.813 322.244 346.363C322.244 376.523 322.244 406.693 322.244 436.853C322.244 473.363 322.244 509.864 322.244 546.374C322.244 577.954 322.244 609.544 322.244 641.124C322.244 651.554 322.244 661.974 322.244 672.404C322.244 675.684 322.244 678.963 322.244 682.243C322.244 683.643 321.784 685.994 322.244 687.324C322.304 687.504 322.244 687.804 322.244 688.004C322.244 688.334 322.954 688.504 323.144 688.514C392.854 693.694 462.803 696.654 532.723 695.774C568.853 695.314 605.064 693.994 641.034 690.384C646.444 689.844 651.863 689.293 657.233 688.493C658.073 688.363 660.034 687.874 660.034 686.714C660.034 674.154 660.034 661.593 660.034 649.043C660.034 618.883 660.034 588.713 660.034 558.553C660.034 522.043 660.034 485.544 660.034 449.034C660.034 417.454 660.034 385.864 660.034 354.284C660.034 343.854 660.034 333.434 660.034 323.004C660.034 319.724 660.034 316.444 660.034 313.164C660.034 311.724 660.474 309.473 660.034 308.083C659.974 307.893 660.034 307.604 660.034 307.404C658.474 307.914 656.913 308.423 655.363 308.933C655.263 308.863 656.394 308.563 655.624 308.583C655.344 308.593 653.284 309.174 652.264 309.374C647.074 310.384 641.784 310.944 636.534 311.504C618.324 313.434 600.013 314.483 581.733 315.333C527.633 317.853 473.314 318.054 419.214 315.414C388.114 313.894 357.014 311.404 326.194 306.894C324.874 306.734 320.554 308.864 323.134 309.234Z" fill="#57C06D"/>
<path d="M657.603 308.083L582.413 277.943L626.483 264.853C626.483 264.853 486.333 255.673 296.063 264.853L341.233 279.793L324.643 308.093C513.673 333.003 657.603 308.083 657.603 308.083Z" fill="#CDE8D2"/>
<path d="M659.524 306.894C634.464 296.844 609.394 286.804 584.334 276.754C583.804 277.564 583.274 278.374 582.754 279.184C597.444 274.824 612.134 270.454 626.824 266.094C628.374 265.634 630.094 263.624 627.424 263.444C607.764 262.164 588.044 261.484 568.354 260.874C516.514 259.274 464.624 258.984 412.764 259.784C373.954 260.374 335.164 261.614 296.394 263.474C295.124 263.534 292.194 265.384 294.604 266.184C309.664 271.164 324.714 276.144 339.774 281.124C339.514 280.654 339.254 280.184 338.994 279.714C333.464 289.144 327.934 298.574 322.404 308.014C322.014 308.684 322.434 309.324 323.184 309.424C387.864 317.904 453.164 321.554 518.384 320.344C558.024 319.604 597.724 317.254 637.084 312.334C643.834 311.494 650.584 310.624 657.294 309.464C659.614 309.064 661.264 306.144 657.934 306.714C638.364 310.094 618.444 311.954 598.674 313.604C547.174 317.904 495.374 318.764 443.744 316.734C404.414 315.184 365.164 311.864 326.134 306.754C326.394 307.224 326.654 307.694 326.914 308.164C332.444 298.734 337.974 289.304 343.504 279.864C343.954 279.094 343.404 278.684 342.724 278.454C327.664 273.474 312.614 268.494 297.554 263.514C296.954 264.414 296.364 265.324 295.764 266.224C360.524 263.114 425.384 261.804 490.224 262.264C528.974 262.544 567.724 263.394 606.434 265.224C612.814 265.524 619.204 265.834 625.574 266.254C625.774 265.374 625.974 264.494 626.174 263.604C611.484 267.964 596.794 272.334 582.104 276.694C581.484 276.884 578.754 278.414 580.524 279.124C605.584 289.174 630.654 299.214 655.714 309.264C657.164 309.864 661.554 307.704 659.524 306.894Z" fill="#57C06D"/>
<path d="M626.484 264.842L582.414 277.942L626.484 295.652V264.842Z" fill="#EFEFEF"/>
<path d="M626.094 263.363C611.404 267.723 596.714 272.093 582.024 276.453C580.614 276.873 578.934 278.613 580.994 279.443C595.684 285.353 610.374 291.253 625.064 297.163C626.114 297.583 628.924 296.903 628.924 295.423C628.924 285.153 628.924 274.883 628.924 264.613C628.924 262.273 624.054 263.123 624.054 265.073C624.054 275.343 624.054 285.613 624.054 295.883C625.344 295.303 626.624 294.723 627.914 294.143C613.224 288.233 598.534 282.333 583.844 276.423C583.504 277.423 583.154 278.423 582.814 279.413C597.504 275.053 612.194 270.683 626.884 266.323C629.794 265.473 629.044 262.483 626.094 263.363Z" fill="#57C06D"/>
<path d="M572.504 354.582C572.514 319.632 574.054 283.862 568.054 249.272C563.724 224.332 553.754 198.762 529.904 186.702C517.044 180.202 502.354 178.182 488.084 178.172C473.924 178.172 459.494 179.982 446.374 185.572C422.604 195.702 410.674 217.762 405.574 242.102C397.804 279.182 400.524 318.262 400.534 355.872C400.534 356.642 405.364 355.962 405.364 354.582C405.354 321.852 403.794 288.702 407.884 256.142C410.894 232.192 418.004 205.692 439.254 191.502C451.314 183.452 465.864 180.722 480.144 180.222C494.984 179.702 510.504 181.242 524.064 187.712C546.974 198.642 557.524 221.952 562.314 245.672C569.574 281.672 567.684 319.362 567.674 355.872C567.674 356.642 572.504 355.962 572.504 354.582Z" fill="#57C06D"/>
<path d="M407.914 363.192C407.764 366.012 406.064 369.542 402.664 368.872C399.724 368.292 397.754 365.342 397.764 362.462C397.774 359.362 400.084 356.102 403.494 357.142C406.354 358.012 407.764 360.762 407.914 363.572C408.004 365.282 412.854 364.262 412.744 362.282C412.104 350.392 392.874 352.082 392.874 363.392C392.884 375.412 412.144 373.852 412.744 362.662C412.874 360.532 408.014 361.432 407.914 363.192Z" fill="#818182"/>
<path d="M575.224 363.232C575.074 366.092 573.434 369.632 569.994 368.982C567.024 368.422 565.064 365.292 565.064 362.442C565.064 359.342 567.314 355.912 570.774 357.042C573.634 357.982 575.074 360.722 575.224 363.572C575.304 365.052 580.154 364.082 580.054 362.282C579.424 350.492 560.234 352.302 560.194 363.412C560.154 375.322 579.454 373.612 580.054 362.612C580.144 360.702 575.304 361.672 575.224 363.232Z" fill="#818182"/>
<path d="M321.944 491.832C311.224 491.992 299.434 498.902 291.264 505.172C271.734 520.182 262.294 543.582 259.444 567.472C259.174 569.722 262.374 572.452 262.764 569.192C265.534 545.972 274.874 523.442 294.014 509.092C301.514 503.472 313.064 496.842 322.374 496.702C324.774 496.682 323.954 491.802 321.944 491.832Z" fill="#57C06D"/>
<path d="M657.584 461.972C667.974 463.772 678.594 470.552 687.124 476.312C707.794 490.262 724.134 509.642 735.904 531.532C737.084 533.732 737.354 528.922 736.794 527.882C724.964 505.862 708.694 486.292 688.004 472.082C679.084 465.952 668.004 458.892 657.064 457.002C656.154 456.842 656.094 461.712 657.584 461.972Z" fill="#57C06D"/>
<path d="M432.836 476.619C434.128 471.119 430.717 465.612 425.217 464.319C419.717 463.027 414.21 466.437 412.918 471.938C411.625 477.438 415.036 482.944 420.536 484.237C426.036 485.53 431.543 482.119 432.836 476.619Z" fill="#818182"/>
<path d="M571.229 471.508C572.73 466.062 569.532 460.429 564.085 458.928C558.639 457.427 553.006 460.625 551.505 466.072C550.004 471.518 553.202 477.151 558.649 478.652C564.095 480.153 569.728 476.955 571.229 471.508Z" fill="#818182"/>
<path d="M425.864 562.273C435.974 550.943 451.004 542.763 465.304 538.343C491.544 530.223 520.794 534.233 544.464 547.923C549.344 550.743 554.284 553.973 558.364 557.903C559.464 558.963 563.994 557.183 562.874 556.093C550.444 544.093 532.294 536.793 515.634 533.603C488.144 528.333 459.464 534.213 436.294 549.883C430.994 553.473 425.704 557.523 421.414 562.323C420.154 563.733 424.914 563.333 425.864 562.273Z" fill="#818182"/>
<path d="M392.174 540.362C399.718 540.362 405.834 531.941 405.834 521.552C405.834 511.164 399.718 502.742 392.174 502.742C384.629 502.742 378.514 511.164 378.514 521.552C378.514 531.941 384.629 540.362 392.174 540.362Z" fill="#C1BCBC"/>
<path d="M592.723 535.352C600.268 535.352 606.383 526.931 606.383 516.542C606.383 506.154 600.268 497.732 592.723 497.732C585.179 497.732 579.063 506.154 579.063 516.542C579.063 526.931 585.179 535.352 592.723 535.352Z" fill="#C1BCBC"/>
<path d="M555.074 489.303C555.074 492.033 552.854 494.253 550.124 494.253C547.394 494.253 545.174 492.033 545.174 489.303C545.174 486.573 550.124 477.773 550.124 477.773C550.124 477.773 555.074 486.573 555.074 489.303Z" fill="#C1BCBC"/>
</svg>
